<svg id="Graphic_elements" data-name="Graphic elements" xmlns="http://www.w3.org/2000/svg" viewBox="0 0 1200 1200"><defs><style>.cls-1{fill:none;}.cls-2{fill:#fff;}</style></defs><path class="cls-1" d="M794.36,889.7,724.17,784.93c-1.5,1.16-3,2.3-4.66,3.39l-.61.42c-1,.69-2.08,1.35-3.12,2L786,895.6Z"/><path class="cls-1" d="M783.27,897.56,712.85,792.45a84.89,84.89,0,0,1-8.45,4.19L775.64,903Z"/><path class="cls-1" d="M806.15,881.35l-71.22-106.3a86.4,86.4,0,0,1-8.1,7.74l70.31,105Z"/><path class="cls-1" d="M685.46,674.05l.15-.1.21.32c3.4,2,8.57,2.8,12,4.48,13.38,6.53,25.26,18.8,28.73,33.67a60.25,60.25,0,0,1,.88,24l12.75,19c7.85-15,9.26-32.3,3.5-49.85a75.87,75.87,0,0,0-72.71-52L683.29,672A7.3,7.3,0,0,0,685.46,674.05Z"/><path class="cls-1" d="M621.9,714.09c1.31-6-5.87-14.38-10.83-20.59-14.51,34.81-.42,67.86,20.49,85.53,12.25,10.35,29.78,17.87,49.38,16.16l-9-13.46C637.43,782.46,615,745.33,621.9,714.09Z"/><polygon class="cls-1" points="313.08 246.63 320.45 250.05 370.21 216.74 367.18 210.42 313.08 246.63"/><path class="cls-1" d="M703.47,772.35l8.3,12.38c1.23-.75,2.46-1.52,3.69-2.36,1.63-1.11,3.19-2.25,4.7-3.43l-8.61-12.85A53.93,53.93,0,0,1,703.47,772.35Z"/><path class="cls-1" d="M736.11,773.75l71.43,106.62,9.71-6.88L743.64,763.62A78.38,78.38,0,0,1,736.11,773.75Z"/><path class="cls-1" d="M686.85,779.59a65.82,65.82,0,0,1-9.07,1.73l8.8,13.13a66,66,0,0,0,8.77-2.17Z"/><path class="cls-1" d="M739.27,757.1,727,738.78a53,53,0,0,1-5.06,13.81l10.06,15A68.06,68.06,0,0,0,739.27,757.1Z"/><path class="cls-1" d="M714,763.64l8.82,13.15a77.58,77.58,0,0,0,8-7.85L721,754.24A52.19,52.19,0,0,1,714,763.64Z"/><path class="cls-1" d="M691.92,778l8.38,12.52a76.68,76.68,0,0,0,8.52-4.08l-8.27-12.35A59.67,59.67,0,0,1,691.92,778Z"/><polygon class="cls-1" points="802.95 896.41 807.39 903.05 816.48 896.77 812.03 890.13 802.95 896.41"/><polygon class="cls-1" points="824.61 881.42 829.07 888.09 836.59 882.89 832.13 876.23 824.61 881.42"/><polygon class="cls-1" points="813.43 889.16 817.88 895.81 827.67 889.05 823.21 882.39 813.43 889.16"/><path class="cls-1" d="M944.22,775.76c-19.22-15.61-41.91-27.24-63.85-38.49-14.62-7.5-29.74-15.25-43.8-24.15-28.2-17.85-35.31-47.29-42.18-75.77-2.13-8.83-4.34-18-7.14-26.62-11-33.9-36.41-59.42-71.48-71.83-38-13.44-81.72-8.79-114.41,12.08l9.26,13.82a.34.34,0,0,1-.1.47l-58.22,39a.31.31,0,0,1-.25,0,.37.37,0,0,1-.22-.14L542.68,590a.28.28,0,0,1,0-.18c-53.83,35-85.69,87.92-59.51,152.45,12.83,31.64,33.83,54,60.47,74.18,19.18,14.52,42.55,29.89,47.69,55.19,13.76,67.8-2.23,133.76,41.65,194.32,33.79,46.63,87.21,74.12,144.5,66.3,74.73-17.6,161.38-77.53,201.68-140.71C1027,916.54,1013.26,831.85,944.22,775.76ZM563.77,622.3a.34.34,0,0,1-.22-.15l-7.94-12.36a.35.35,0,0,1,.1-.46l58-38.82a.35.35,0,0,1,.47.09l8.39,12a.4.4,0,0,1,.06.26.35.35,0,0,1-.15.21L564,622.25A.31.31,0,0,1,563.77,622.3Zm10.88,16.42-7.92-11.82a.35.35,0,0,1,.09-.47l58.45-39.13a.34.34,0,0,1,.46.09l8.15,11.68a.31.31,0,0,1,0,.25.3.3,0,0,1-.14.22l-58.68,39.28A.33.33,0,0,1,574.65,638.72Zm10,15.09a.32.32,0,0,1-.21-.15l-7-10.8a.34.34,0,0,1,.09-.46l58.68-39.28a.35.35,0,0,1,.47.09l7.16,10.7a.34.34,0,0,1-.1.47L584.9,653.76A.4.4,0,0,1,584.64,653.81Zm8.64,13.56-5.14-7.68a.35.35,0,0,1,.09-.47l59.28-39.68a.34.34,0,0,1,.46.09l5.29,7.58a.36.36,0,0,1,.06.25.34.34,0,0,1-.15.22l-59.42,39.78A.35.35,0,0,1,593.28,667.37Zm3.27,4.28L656,631.87a.33.33,0,0,1,.46.08l7.46,10.49a.4.4,0,0,1,.06.26.34.34,0,0,1-.15.22l-60,40.18a.34.34,0,0,1-.26,0,.35.35,0,0,1-.21-.15l-6.86-10.9A.33.33,0,0,1,596.55,671.65ZM897.68,865.5,722.39,989.81h0a.39.39,0,0,1-.25.06.34.34,0,0,1-.22-.15L700,957a.35.35,0,0,1,.08-.47l60.31-42.72L685.51,802c-23.25,3.36-44.22-5.33-58.6-17.48-23.52-19.88-39.2-57.49-21.22-96.71a3.54,3.54,0,0,1,2.08-1.89c1.42-2.34,6-3.88,8.72-5.74l48.25-32.3a3.58,3.58,0,0,1,2.71-1.41c44-1.6,73.43,27.4,83.08,56.85,6.73,20.51,4.34,41.16-5.93,58.67l74,110.51,57.89-41h0a.38.38,0,0,1,.21,0h0a.33.33,0,0,1,.21.11s0,0,0,.05L897.77,865A.36.36,0,0,1,897.68,865.5Z"/><polygon class="cls-1" points="770.11 919.12 774.53 925.73 781.52 920.9 777.09 914.29 770.11 919.12"/><polygon class="cls-1" points="759.54 926.43 763.96 933.03 770.34 928.63 765.91 922.02 759.54 926.43"/><polygon class="cls-1" points="791.77 904.14 796.21 910.77 804.6 904.98 800.15 898.34 791.77 904.14"/><path class="cls-1" d="M771.48,905.91,699.54,798.54A73.45,73.45,0,0,1,691,801l73.58,109.83Z"/><polygon class="cls-1" points="781.28 911.39 785.72 918.01 793.41 912.7 788.97 906.08 781.28 911.39"/><path d="M394.76,251.49a.32.32,0,0,0-.05-.25l-23.77-34.55-3.32-6.9-10.79-26.55-10.65-15.91,3.64-2.44a.35.35,0,0,0,.09-.47L339.57,149a.35.35,0,0,0-.47-.09L333,153l-12.19-16.33,6.48-4.34a.35.35,0,0,0,.09-.47l-9.78-14.61a.34.34,0,0,0-.46-.09l-7.42,5-11.82-15.93,5.58-3.73a.35.35,0,0,0,.09-.47l-9.73-14.53a.34.34,0,0,0-.47-.1L287,91.62,257.8,50.14a.37.37,0,0,0-.22-.14.41.41,0,0,0-.26.07l-70,53.82a.32.32,0,0,0-.12.21l-1.9,9.88a.32.32,0,0,0,.07.27l27.13,33.88-5.72,7.44-3.55-2.1a.3.3,0,0,0-.21-.05l-3.26.33a.35.35,0,0,0-.23.12l-1.77,2.06a.33.33,0,0,0-.08.25l.38,4.33a.65.65,0,0,0,0,.13l2.43,4.44,3.25,4,.08.07,4.05,2.64.1,0,3.8.94a.33.33,0,0,0,.24,0l2.49-1.33a.35.35,0,0,0,.16-.23l.65-2.94a.28.28,0,0,0,0-.18l-1.66-4.68,5.47-6.92,17,21.93-5.77,7.36L227,183.71a.38.38,0,0,0-.21-.05l-3.27.34a.27.27,0,0,0-.22.12l-1.73,2.14a.32.32,0,0,0-.08.23l.29,4.17a.28.28,0,0,0,0,.13l2.37,4.51,3.32,4,.07.06,4,2.76.11,0,3.79.94a.31.31,0,0,0,.25,0l2.51-1.47a.29.29,0,0,0,.16-.21l.62-2.82a.37.37,0,0,0,0-.18l-1.58-4.73,5.39-6.87,19.51,24.51-5.72,7.43-3.43-2.07a.29.29,0,0,0-.2,0l-3.27.33a.35.35,0,0,0-.23.12l-1.8,2.2a.31.31,0,0,0-.08.24l.36,4.12a.5.5,0,0,0,0,.13l2.36,4.5,3.38,4.07.07.06,4,2.69.11,0,3.8.95a.33.33,0,0,0,.24,0l2.56-1.39a.36.36,0,0,0,.17-.23l.57-2.9a.25.25,0,0,0,0-.17l-1.58-4.72,5.39-6.87,11.2,14a.32.32,0,0,0,.13.1L312.27,247l8,3.71,23.14,34.9a.37.37,0,0,0,.22.14.31.31,0,0,0,.25-.05l50.76-34A.3.3,0,0,0,394.76,251.49Zm-106.14-32-84.41-103,51.67-41.24,6.36,8L218.64,118l77.86,95Zm31.83,30.6-7.37-3.42,54.09-36.21,3,6.32Z"/><path d="M418.56,285.08a.35.35,0,0,0-.06-.26L398.87,257a.34.34,0,0,0-.46-.09l-51,34.13a.34.34,0,0,0-.1.46l18.05,28.93a.38.38,0,0,0,.22.15.37.37,0,0,0,.25-.05l52.57-35.19A.37.37,0,0,0,418.56,285.08Z"/><path d="M440.9,318.56a.34.34,0,0,0,.15-.22.37.37,0,0,0-.06-.25l-18.5-27.31a.34.34,0,0,0-.47-.1h0L369.55,326a.34.34,0,0,0-.09.46l17.92,27.27a.34.34,0,0,0,.22.15.31.31,0,0,0,.25-.05l53-35.3Z"/><path d="M463.61,351.56a.34.34,0,0,0-.05-.26l-18.79-27.56a.34.34,0,0,0-.46-.09L391.36,359.1a.33.33,0,0,0-.1.46l18.34,27.87a.34.34,0,0,0,.47.09l53.4-35.75A.34.34,0,0,0,463.61,351.56Z"/><path d="M484.56,381.38a.36.36,0,0,0-.06-.25L467.78,357a.32.32,0,0,0-.46-.09l-53.7,35.94a.35.35,0,0,0-.09.47l16,24.66a.34.34,0,0,0,.47.09l54.45-36.45A.34.34,0,0,0,484.56,381.38Z"/><path d="M468.31,476.94l12.86,19.2a.33.33,0,0,0,.47.09l56-37.5a.33.33,0,0,0,.14-.22.31.31,0,0,0,0-.25L524.68,439.2a.34.34,0,0,0-.46-.09l-55.81,37.36A.34.34,0,0,0,468.31,476.94Z"/><path d="M451.82,452l12.56,18.76a.35.35,0,0,0,.47.09l55.2-37a.34.34,0,0,0,.15-.22.34.34,0,0,0-.06-.25l-12.78-18.61a.34.34,0,0,0-.46-.09l-55,36.81A.35.35,0,0,0,451.82,452Z"/><path d="M448.66,446l54.68-36.61a.35.35,0,0,0,.15-.21.4.4,0,0,0-.06-.26l-15.09-22.07a.35.35,0,0,0-.47-.09l-54.46,36.46a.34.34,0,0,0-.09.46L448.2,445.9A.33.33,0,0,0,448.66,446Z"/><path d="M633.93,599.32a.31.31,0,0,0,0-.25l-8.15-11.68a.34.34,0,0,0-.46-.09l-58.45,39.13a.35.35,0,0,0-.09.47l7.92,11.82a.33.33,0,0,0,.46.1l58.68-39.28A.3.3,0,0,0,633.93,599.32Z"/><path d="M622.62,582.91a.4.4,0,0,0-.06-.26l-8.39-12a.35.35,0,0,0-.47-.09l-58,38.82a.35.35,0,0,0-.1.46l7.94,12.36a.34.34,0,0,0,.22.15.31.31,0,0,0,.25,0l58.45-39.13A.35.35,0,0,0,622.62,582.91Z"/><path d="M517.1,551.27l8,12a.33.33,0,0,0,.47.09l57.54-38.51a.3.3,0,0,0,.14-.22.34.34,0,0,0,0-.26L575,512.53a.34.34,0,0,0-.46-.09l-57.32,38.37A.32.32,0,0,0,517.1,551.27Z"/><path d="M500.91,526.11,512.86,545a.36.36,0,0,0,.47.1l57.32-38.37a.33.33,0,0,0,.14-.22.34.34,0,0,0,0-.26L557.88,488a.34.34,0,0,0-.46-.09L501,525.65A.34.34,0,0,0,500.91,526.11Z"/><path d="M603.52,683.15a.34.34,0,0,0,.26,0l60-40.18a.34.34,0,0,0,.15-.22.4.4,0,0,0-.06-.26L656.44,632a.33.33,0,0,0-.46-.08l-59.43,39.78a.33.33,0,0,0-.1.45l6.86,10.9A.35.35,0,0,0,603.52,683.15Z"/><path d="M643.82,613.91l-7.16-10.7a.35.35,0,0,0-.47-.09L577.51,642.4a.34.34,0,0,0-.09.46l7,10.8a.32.32,0,0,0,.21.15.4.4,0,0,0,.26,0l58.82-39.38A.34.34,0,0,0,643.82,613.91Z"/><path d="M653.32,627.46a.36.36,0,0,0-.06-.25L648,619.63a.34.34,0,0,0-.46-.09l-59.28,39.68a.35.35,0,0,0-.09.47l5.14,7.68a.35.35,0,0,0,.47.09l59.42-39.78A.34.34,0,0,0,653.32,627.46Z"/><path d="M877,831.61s0,0,0-.05a.33.33,0,0,0-.21-.11h0a.38.38,0,0,0-.21,0h0l-57.89,41L744.6,762c10.27-17.51,12.66-38.16,5.93-58.67-9.65-29.45-39.09-58.45-83.08-56.85a3.58,3.58,0,0,0-2.71,1.41l-48.25,32.3c-2.77,1.86-7.3,3.4-8.72,5.74a3.54,3.54,0,0,0-2.08,1.89c-18,39.22-2.3,76.83,21.22,96.71,14.38,12.15,35.35,20.84,58.6,17.48l74.87,111.76-60.31,42.72a.35.35,0,0,0-.08.47l21.93,32.76a.34.34,0,0,0,.22.15.39.39,0,0,0,.25-.06h0L897.68,865.5a.36.36,0,0,0,.09-.46Zm-59.76,41.88-9.71,6.88L736.11,773.75a78.38,78.38,0,0,0,7.53-10.13ZM730.84,768.94a77.58,77.58,0,0,1-8,7.85L714,763.64a52.19,52.19,0,0,0,7-9.4Zm-8.91-16.35A53,53,0,0,0,727,738.78l12.28,18.32A68.06,68.06,0,0,1,732,767.6Zm-1.77,26.35c-1.51,1.18-3.07,2.32-4.7,3.43-1.23.84-2.46,1.61-3.69,2.36l-8.3-12.38a53.93,53.93,0,0,0,8.08-6.26Zm-11.34,7.5a76.68,76.68,0,0,1-8.52,4.08L691.92,778a59.67,59.67,0,0,0,8.63-3.91Zm4,6,70.42,105.11L775.64,903,704.4,796.64A84.89,84.89,0,0,0,712.85,792.45Zm2.93-1.72c1-.64,2.08-1.3,3.12-2l.61-.42c1.61-1.09,3.16-2.23,4.66-3.39L794.36,889.7,786,895.6Zm11.05-7.94a86.4,86.4,0,0,0,8.1-7.74l71.22,106.3-9,6.39Zm16.86-77.22c5.76,17.55,4.35,34.82-3.5,49.85l-12.75-19a60.25,60.25,0,0,0-.88-24c-3.47-14.87-15.35-27.14-28.73-33.67-3.44-1.68-8.61-2.47-12-4.48l-.21-.32-.15.1a7.3,7.3,0,0,1-2.17-2L671,653.62A75.87,75.87,0,0,1,743.69,705.57ZM631.56,779c-20.91-17.67-35-50.72-20.49-85.53,5,6.21,12.14,14.64,10.83,20.59-6.87,31.24,15.53,68.37,50,67.64l9,13.46C661.34,796.9,643.81,789.38,631.56,779Zm46.22,2.29a65.82,65.82,0,0,0,9.07-1.73l8.5,12.69a66,66,0,0,1-8.77,2.17ZM691,801a73.45,73.45,0,0,0,8.57-2.46l71.94,107.37-6.93,4.92Zm73,132-4.42-6.6,6.37-4.41,4.43,6.61Zm10.57-7.3-4.43-6.61,7-4.83,4.43,6.61ZM785.72,918l-4.44-6.62,7.69-5.32,4.44,6.63Zm10.49-7.24-4.44-6.63,8.38-5.8L804.6,905Zm11.18-7.72L803,896.41l9.08-6.28,4.45,6.64Zm10.49-7.24-4.45-6.65,9.78-6.77,4.46,6.66Zm11.19-7.72-4.46-6.66,7.52-5.2,4.46,6.66Z"/><path d="M485.1,502l7.16,11,3.71,5.7,1.16,1.77a.32.32,0,0,0,.21.15.34.34,0,0,0,.26-.05L554,482.8a.37.37,0,0,0,.14-.22.31.31,0,0,0,0-.25l-1.05-1.54-3.83-5.61-7.53-11.05a.34.34,0,0,0-.46-.09l-56,37.51A.35.35,0,0,0,485.1,502Z"/><path d="M529.5,569.8l6.31,9.77,2,3,.73,1.13a.32.32,0,0,0,.21.15.34.34,0,0,0,.26,0L597,545a.33.33,0,0,0,.14-.22.31.31,0,0,0-.05-.25l-2.15-3.1-2-3-5.26-7.57a.33.33,0,0,0-.46-.09l-57.54,38.52A.33.33,0,0,0,529.5,569.8Z"/><path d="M964.25,784.15l-2.55-2.56q-6.13-5.87-12.94-11.42c-19.81-16.09-42.83-27.89-65.1-39.31-14.49-7.42-29.46-15.1-43.24-23.82a67.21,67.21,0,0,1-14.36-12.13l-2.32-2.78c-12.48-15.6-17.32-35.6-22.35-56.47-2.17-9-4.4-18.24-7.3-27.15a118.74,118.74,0,0,0-15.59-31.45l-2.11-2.93c-14.16-19-34-33.45-58.22-42a137.25,137.25,0,0,0-16.84-4.76l-4.63-1,0,0c-34.68-6.3-71.46.4-100.07,19l0,0a3.59,3.59,0,0,0,2.15,6.57l-56,37.48h0l-2.24-3.34c-55.42,36.66-115.27,84-96.08,158.87,8.85,34.56,28.68,61.14,56.75,82.66,35,26.82,49.95,40.89,51.92,87.19,3.78,88.9,45.59,194.91,121.4,226.08l.83.35c26.94,10.84,58.15,12.22,93.43.11,38.87-7.26,81.69-26.54,120.27-52.36,39.42-26.39,74.39-59.58,96.14-93.68C1031.31,923.12,1022.6,842.22,964.25,784.15Zm14.88,207.38c-40.3,63.18-127,123.11-201.68,140.71-57.29,7.82-110.71-19.67-144.5-66.3-43.88-60.56-27.89-126.52-41.65-194.32-5.14-25.3-28.51-40.67-47.69-55.19C517,796.25,496,773.89,483.14,742.25,457,677.72,488.82,624.8,542.65,589.8a.28.28,0,0,0,0,.18l9.15,14.17a.37.37,0,0,0,.22.14.31.31,0,0,0,.25,0l58.22-39a.34.34,0,0,0,.1-.47L601.36,551c32.69-20.87,76.43-25.52,114.41-12.08,35.07,12.41,60.46,37.93,71.48,71.83,2.8,8.65,5,17.79,7.14,26.62,6.87,28.48,14,57.92,42.18,75.77,14.06,8.9,29.18,16.65,43.8,24.15,21.94,11.25,44.63,22.88,63.85,38.49C1013.26,831.85,1027,916.54,979.13,991.53Z"/><polygon class="cls-2" points="262.24 83.15 255.88 75.19 204.21 116.42 288.62 219.45 296.5 212.99 218.64 117.95 262.24 83.15"/></svg>